<mxfile host="app.diagrams.net" agent="Mozilla/5.0 (Windows NT 10.0; Win64; x64) AppleWebKit/537.36 (KHTML, like Gecko) Chrome/128.0.0.0 Safari/537.36" version="24.7.8">
  <diagram name="Page-1" id="id1VEf8T5IFAd51e1AsY">
    <mxGraphModel dx="1194" dy="716" grid="1" gridSize="10" guides="1" tooltips="1" connect="1" arrows="1" fold="1" page="1" pageScale="1" pageWidth="850" pageHeight="1100" math="0" shadow="0">
      <root>
        <mxCell id="0" />
        <mxCell id="1" parent="0" />
        <mxCell id="fSB396MIS4UcpzQ0Q3u3-15" style="edgeStyle=orthogonalEdgeStyle;rounded=0;orthogonalLoop=1;jettySize=auto;html=1;exitX=0.5;exitY=1;exitDx=0;exitDy=0;entryX=0.5;entryY=0;entryDx=0;entryDy=0;" edge="1" parent="1" source="fSB396MIS4UcpzQ0Q3u3-1" target="fSB396MIS4UcpzQ0Q3u3-2">
          <mxGeometry relative="1" as="geometry" />
        </mxCell>
        <mxCell id="fSB396MIS4UcpzQ0Q3u3-1" value="Start" style="ellipse;whiteSpace=wrap;html=1;aspect=fixed;fillColor=none;fillStyle=auto;" vertex="1" parent="1">
          <mxGeometry x="360" y="30" width="80" height="80" as="geometry" />
        </mxCell>
        <mxCell id="fSB396MIS4UcpzQ0Q3u3-16" style="edgeStyle=orthogonalEdgeStyle;rounded=0;orthogonalLoop=1;jettySize=auto;html=1;exitX=0.5;exitY=1;exitDx=0;exitDy=0;entryX=0.5;entryY=0;entryDx=0;entryDy=0;" edge="1" parent="1" source="fSB396MIS4UcpzQ0Q3u3-2" target="fSB396MIS4UcpzQ0Q3u3-3">
          <mxGeometry relative="1" as="geometry" />
        </mxCell>
        <mxCell id="fSB396MIS4UcpzQ0Q3u3-2" value="var age&lt;div&gt;var message&lt;/div&gt;" style="whiteSpace=wrap;html=1;aspect=fixed;fillColor=none;" vertex="1" parent="1">
          <mxGeometry x="360" y="130" width="80" height="80" as="geometry" />
        </mxCell>
        <mxCell id="fSB396MIS4UcpzQ0Q3u3-13" style="edgeStyle=orthogonalEdgeStyle;rounded=0;orthogonalLoop=1;jettySize=auto;html=1;exitX=1;exitY=0.5;exitDx=0;exitDy=0;" edge="1" parent="1" source="fSB396MIS4UcpzQ0Q3u3-3" target="fSB396MIS4UcpzQ0Q3u3-4">
          <mxGeometry relative="1" as="geometry" />
        </mxCell>
        <mxCell id="fSB396MIS4UcpzQ0Q3u3-14" style="edgeStyle=orthogonalEdgeStyle;rounded=0;orthogonalLoop=1;jettySize=auto;html=1;exitX=0;exitY=0.5;exitDx=0;exitDy=0;entryX=1;entryY=0.5;entryDx=0;entryDy=0;" edge="1" parent="1" source="fSB396MIS4UcpzQ0Q3u3-3" target="fSB396MIS4UcpzQ0Q3u3-5">
          <mxGeometry relative="1" as="geometry" />
        </mxCell>
        <mxCell id="fSB396MIS4UcpzQ0Q3u3-3" value="age = &quot;Are you 21 or older?&quot;" style="rhombus;whiteSpace=wrap;html=1;fillColor=none;" vertex="1" parent="1">
          <mxGeometry x="345" y="230" width="110" height="110" as="geometry" />
        </mxCell>
        <mxCell id="fSB396MIS4UcpzQ0Q3u3-10" style="edgeStyle=orthogonalEdgeStyle;rounded=0;orthogonalLoop=1;jettySize=auto;html=1;exitX=0.5;exitY=1;exitDx=0;exitDy=0;entryX=1;entryY=0.5;entryDx=0;entryDy=0;" edge="1" parent="1" source="fSB396MIS4UcpzQ0Q3u3-4" target="fSB396MIS4UcpzQ0Q3u3-7">
          <mxGeometry relative="1" as="geometry">
            <Array as="points">
              <mxPoint x="550" y="400" />
            </Array>
          </mxGeometry>
        </mxCell>
        <mxCell id="fSB396MIS4UcpzQ0Q3u3-4" value="message is &quot;You can enter the club&quot;" style="whiteSpace=wrap;html=1;aspect=fixed;fillColor=none;" vertex="1" parent="1">
          <mxGeometry x="510" y="245" width="80" height="80" as="geometry" />
        </mxCell>
        <mxCell id="fSB396MIS4UcpzQ0Q3u3-9" style="edgeStyle=orthogonalEdgeStyle;rounded=0;orthogonalLoop=1;jettySize=auto;html=1;exitX=0.5;exitY=1;exitDx=0;exitDy=0;entryX=0;entryY=0.5;entryDx=0;entryDy=0;" edge="1" parent="1" source="fSB396MIS4UcpzQ0Q3u3-5" target="fSB396MIS4UcpzQ0Q3u3-7">
          <mxGeometry relative="1" as="geometry">
            <Array as="points">
              <mxPoint x="250" y="400" />
            </Array>
          </mxGeometry>
        </mxCell>
        <mxCell id="fSB396MIS4UcpzQ0Q3u3-5" value="message is &quot;You cannot enter the club&quot;" style="whiteSpace=wrap;html=1;aspect=fixed;fillColor=none;" vertex="1" parent="1">
          <mxGeometry x="210" y="245" width="80" height="80" as="geometry" />
        </mxCell>
        <mxCell id="fSB396MIS4UcpzQ0Q3u3-6" value="Stop" style="ellipse;whiteSpace=wrap;html=1;aspect=fixed;fillColor=none;" vertex="1" parent="1">
          <mxGeometry x="360" y="460" width="80" height="80" as="geometry" />
        </mxCell>
        <mxCell id="fSB396MIS4UcpzQ0Q3u3-17" style="edgeStyle=orthogonalEdgeStyle;rounded=0;orthogonalLoop=1;jettySize=auto;html=1;exitX=0.5;exitY=1;exitDx=0;exitDy=0;entryX=0.5;entryY=0;entryDx=0;entryDy=0;" edge="1" parent="1" source="fSB396MIS4UcpzQ0Q3u3-7" target="fSB396MIS4UcpzQ0Q3u3-6">
          <mxGeometry relative="1" as="geometry" />
        </mxCell>
        <mxCell id="fSB396MIS4UcpzQ0Q3u3-7" value="output message" style="shape=parallelogram;perimeter=parallelogramPerimeter;whiteSpace=wrap;html=1;fixedSize=1;fillColor=none;" vertex="1" parent="1">
          <mxGeometry x="340" y="370" width="120" height="60" as="geometry" />
        </mxCell>
        <mxCell id="fSB396MIS4UcpzQ0Q3u3-11" value="True" style="text;html=1;align=center;verticalAlign=middle;resizable=0;points=[];autosize=1;strokeColor=none;fillColor=none;" vertex="1" parent="1">
          <mxGeometry x="455" y="240" width="50" height="30" as="geometry" />
        </mxCell>
        <mxCell id="fSB396MIS4UcpzQ0Q3u3-12" value="False" style="text;html=1;align=center;verticalAlign=middle;resizable=0;points=[];autosize=1;strokeColor=none;fillColor=none;" vertex="1" parent="1">
          <mxGeometry x="295" y="240" width="50" height="30" as="geometry" />
        </mxCell>
      </root>
    </mxGraphModel>
  </diagram>
</mxfile>
